<svg width="387" height="144" viewBox="0 0 387 144" fill="none" xmlns="http://www.w3.org/2000/svg">
<path fill-rule="evenodd" clip-rule="evenodd" d="M257.299 57.5312V32.6444C262.218 30.5872 266.371 29.5586 269.773 29.5586C273.034 29.5586 275.543 30.4586 277.329 32.2444C278.218 33.1525 278.913 34.2345 279.371 35.4237C279.83 36.6129 280.041 37.8841 279.994 39.159V87.2039C275.075 89.2611 270.921 90.2897 267.519 90.2897C266.429 90.3186 265.343 90.1261 264.328 89.7236C263.312 89.3211 262.387 88.7168 261.608 87.9468C259.931 86.2152 258.823 84.0058 258.433 81.6179C254.351 87.4039 248.936 90.2897 242.216 90.2897C235.554 90.2897 230.394 88.3468 226.723 84.4752C223.051 80.5893 221.223 75.0748 221.223 67.9174V32.6444C226.142 30.5872 230.295 29.5586 233.697 29.5586C236.957 29.5586 239.466 30.4586 241.252 32.2444C242.142 33.1525 242.837 34.2345 243.295 35.4237C243.753 36.6129 243.965 37.8841 243.917 39.159V64.0315C243.917 69.6031 245.874 72.3747 249.814 72.3747C252.465 72.3747 254.365 71.3461 255.541 69.2888C256.718 67.2316 257.299 63.3172 257.299 57.5312V57.5312Z" fill="#1D8FF3"/>
<path fill-rule="evenodd" clip-rule="evenodd" d="M207.711 28.8574C210.731 28.8574 213.764 29.5432 216.783 30.9289L210.362 50.9298C208.349 49.5139 205.956 48.7513 203.501 48.744C200.553 48.744 198.398 49.9869 197.023 52.4727C195.662 54.9728 194.982 59.6159 194.982 66.4447V88.86H172.84V31.9576C177.631 29.886 181.699 28.8574 185.016 28.8574C187.455 28.8574 189.439 29.686 190.998 31.329C192.636 33.1771 193.674 35.4847 193.975 37.9435C197.377 31.8861 201.956 28.8574 207.711 28.8574Z" fill="#1D8FF3"/>
<path fill-rule="evenodd" clip-rule="evenodd" d="M137.615 46.9165C135.659 46.9165 134.015 47.7022 132.654 49.2594C131.161 51.1613 130.197 53.4295 129.862 55.8311C130.755 55.8883 132.059 55.9311 133.788 55.9311C139.487 55.9311 142.322 54.1882 142.322 50.6881C142.322 48.1737 140.762 46.9165 137.615 46.9165ZM140.309 73.4033C145.568 73.462 150.727 71.9509 155.136 69.0603L164.024 83.1037C156.376 87.8129 147.585 90.2998 138.622 90.2897C128.883 90.2897 121.314 87.7182 115.913 82.5751C110.526 77.4463 107.833 70.246 107.833 60.9599C107.833 51.1452 110.611 43.4592 116.196 37.9018C121.782 32.3444 129.592 29.5586 139.628 29.5586C147.34 29.5586 153.336 31.3158 157.617 34.816C161.87 38.3161 164.024 43.1877 164.024 49.4309C164.024 55.3597 161.373 59.9885 156.086 63.2886C150.813 66.603 143.484 68.2602 134.114 68.2602C132.555 68.2602 131.35 68.2174 130.528 68.1459C131.874 71.6461 135.135 73.4033 140.309 73.4033V73.4033Z" fill="#1D8FF3"/>
<path fill-rule="evenodd" clip-rule="evenodd" d="M85.266 6C89.0791 6 92.0985 7.08576 94.3382 9.22871C95.4523 10.3012 96.3288 11.5989 96.9102 13.0368C97.4916 14.4746 97.7648 16.0202 97.7119 17.5719V88.8607H74.2659V56.5164H47.4461V88.8607H24V9.07156C28.1817 7.02862 31.8532 6 35.0001 6C38.8133 6 41.8326 7.08576 44.0723 9.22871C45.1871 10.3006 46.0641 11.5983 46.6456 13.0363C47.2271 14.4743 47.4999 16.02 47.4461 17.5719V38.5728H74.2659V9.07156C78.4334 7.02862 82.119 6 85.266 6Z" fill="#1D8FF3"/>
<path d="M34.703 132.229H28.9238L28.9618 129.244H34.703C36.6801 129.244 38.3276 128.832 39.6457 128.009C40.9637 127.172 41.9523 126.006 42.6113 124.511C43.283 123.003 43.6189 121.241 43.6189 119.226V117.534C43.6189 115.95 43.4287 114.543 43.0485 113.314C42.6683 112.072 42.1107 111.026 41.3756 110.177C40.6406 109.315 39.7407 108.662 38.6762 108.219C37.6242 107.775 36.4139 107.554 35.0452 107.554H28.8098V104.55H35.0452C36.8575 104.55 38.5114 104.854 40.0069 105.462C41.5024 106.058 42.7887 106.926 43.866 108.067C44.9559 109.195 45.7924 110.564 46.3754 112.173C46.9583 113.77 47.2498 115.57 47.2498 117.572V119.226C47.2498 121.228 46.9583 123.034 46.3754 124.644C45.7924 126.241 44.9496 127.603 43.847 128.731C42.757 129.859 41.439 130.727 39.8928 131.336C38.3593 131.931 36.6294 132.229 34.703 132.229ZM30.8819 104.55V132.229H27.2129V104.55H30.8819Z" fill="#1D8FF3"/>
<path d="M60.7662 132.609C59.3341 132.609 58.0351 132.368 56.8691 131.887C55.7158 131.393 54.7209 130.702 53.8845 129.815C53.0607 128.928 52.427 127.876 51.9834 126.659C51.5398 125.442 51.3181 124.112 51.3181 122.667V121.868C51.3181 120.195 51.5652 118.706 52.0595 117.401C52.5537 116.083 53.2254 114.968 54.0746 114.055C54.9237 113.143 55.8869 112.452 56.9641 111.983C58.0414 111.514 59.1567 111.28 60.31 111.28C61.7801 111.28 63.0475 111.533 64.112 112.04C65.1893 112.547 66.0701 113.257 66.7545 114.169C67.4389 115.069 67.9458 116.134 68.2753 117.363C68.6048 118.58 68.7696 119.91 68.7696 121.355V122.933H53.4092V120.062H65.2527V119.796C65.202 118.884 65.0119 117.997 64.6824 117.135C64.3655 116.273 63.8586 115.563 63.1615 115.006C62.4645 114.448 61.514 114.169 60.31 114.169C59.5115 114.169 58.7765 114.34 58.1048 114.682C57.4331 115.012 56.8564 115.506 56.3748 116.165C55.8932 116.824 55.5194 117.629 55.2532 118.58C54.9871 119.53 54.854 120.626 54.854 121.868V122.667C54.854 123.643 54.9871 124.561 55.2532 125.423C55.532 126.272 55.9312 127.02 56.4509 127.667C56.9832 128.313 57.6232 128.82 58.3709 129.187C59.1313 129.555 59.9931 129.739 60.9563 129.739C62.1983 129.739 63.2502 129.485 64.112 128.978C64.9738 128.471 65.7279 127.793 66.3743 126.944L68.5034 128.636C68.0599 129.308 67.4959 129.948 66.8115 130.556C66.1271 131.164 65.2844 131.659 64.2831 132.039C63.2946 132.419 62.1223 132.609 60.7662 132.609Z" fill="#1D8FF3"/>
<path d="M84.8524 126.773C84.8524 126.266 84.7383 125.797 84.5102 125.366C84.2947 124.923 83.8448 124.523 83.1605 124.169C82.4888 123.801 81.4749 123.484 80.1188 123.218C78.9782 122.977 77.9453 122.692 77.0201 122.363C76.1076 122.033 75.3282 121.634 74.6818 121.165C74.0481 120.696 73.5602 120.145 73.218 119.511C72.8758 118.877 72.7047 118.136 72.7047 117.287C72.7047 116.476 72.8822 115.709 73.237 114.987C73.6046 114.264 74.1178 113.624 74.7769 113.067C75.4486 112.509 76.2533 112.072 77.1912 111.755C78.129 111.438 79.1746 111.28 80.3279 111.28C81.9755 111.28 83.3822 111.571 84.5482 112.154C85.7142 112.737 86.6077 113.516 87.2287 114.492C87.8497 115.456 88.1602 116.526 88.1602 117.705H84.6433C84.6433 117.135 84.4722 116.583 84.13 116.051C83.8005 115.506 83.3125 115.056 82.6662 114.701C82.0325 114.347 81.2531 114.169 80.3279 114.169C79.352 114.169 78.5599 114.321 77.9516 114.625C77.3559 114.917 76.9187 115.291 76.6399 115.747C76.3737 116.203 76.2407 116.685 76.2407 117.192C76.2407 117.572 76.304 117.914 76.4308 118.218C76.5702 118.51 76.811 118.782 77.1532 119.036C77.4954 119.277 77.977 119.505 78.598 119.72C79.219 119.936 80.0111 120.151 80.9743 120.367C82.6598 120.747 84.0476 121.203 85.1375 121.735C86.2275 122.268 87.0386 122.92 87.5709 123.693C88.1032 124.466 88.3693 125.404 88.3693 126.507C88.3693 127.407 88.1792 128.23 87.799 128.978C87.4315 129.726 86.8928 130.372 86.1831 130.917C85.4861 131.45 84.6496 131.868 83.6737 132.172C82.7105 132.463 81.6269 132.609 80.423 132.609C78.6106 132.609 77.0771 132.286 75.8224 131.64C74.5678 130.993 73.6172 130.157 72.9709 129.13C72.3245 128.104 72.0014 127.02 72.0014 125.88H75.5373C75.588 126.843 75.8668 127.609 76.3737 128.18C76.8807 128.737 77.5017 129.137 78.2368 129.377C78.9718 129.606 79.7006 129.72 80.423 129.72C81.3862 129.72 82.1909 129.593 82.8373 129.339C83.4963 129.086 83.9969 128.737 84.3391 128.294C84.6813 127.85 84.8524 127.343 84.8524 126.773Z" fill="#1D8FF3"/>
<path d="M96.8099 111.66V132.229H93.274V111.66H96.8099ZM93.0078 106.204C93.0078 105.633 93.1789 105.152 93.5211 104.759C93.876 104.366 94.3956 104.17 95.08 104.17C95.7517 104.17 96.265 104.366 96.6198 104.759C96.9873 105.152 97.1711 105.633 97.1711 106.204C97.1711 106.749 96.9873 107.218 96.6198 107.611C96.265 107.991 95.7517 108.181 95.08 108.181C94.3956 108.181 93.876 107.991 93.5211 107.611C93.1789 107.218 93.0078 106.749 93.0078 106.204Z" fill="#1D8FF3"/>
<path d="M115.782 111.66H118.976V131.792C118.976 133.604 118.608 135.15 117.873 136.43C117.138 137.71 116.112 138.68 114.794 139.339C113.488 140.011 111.98 140.346 110.269 140.346C109.56 140.346 108.723 140.232 107.76 140.004C106.809 139.789 105.872 139.415 104.946 138.883C104.034 138.363 103.267 137.66 102.646 136.772L104.49 134.681C105.352 135.721 106.252 136.443 107.19 136.849C108.14 137.254 109.078 137.457 110.003 137.457C111.118 137.457 112.082 137.248 112.893 136.83C113.704 136.411 114.331 135.79 114.775 134.967C115.231 134.155 115.459 133.154 115.459 131.963V116.184L115.782 111.66ZM101.62 122.173V121.773C101.62 120.202 101.803 118.776 102.171 117.496C102.551 116.203 103.09 115.094 103.787 114.169C104.496 113.244 105.352 112.534 106.353 112.04C107.354 111.533 108.482 111.28 109.737 111.28C111.03 111.28 112.158 111.508 113.121 111.964C114.097 112.408 114.92 113.06 115.592 113.922C116.277 114.771 116.815 115.798 117.208 117.002C117.601 118.206 117.873 119.568 118.026 121.089V122.838C117.886 124.346 117.614 125.702 117.208 126.906C116.815 128.11 116.277 129.137 115.592 129.986C114.92 130.835 114.097 131.488 113.121 131.944C112.145 132.387 111.004 132.609 109.699 132.609C108.47 132.609 107.354 132.349 106.353 131.83C105.365 131.31 104.515 130.581 103.806 129.644C103.096 128.706 102.551 127.603 102.171 126.336C101.803 125.056 101.62 123.668 101.62 122.173ZM105.136 121.773V122.173C105.136 123.199 105.238 124.162 105.441 125.062C105.656 125.962 105.979 126.754 106.41 127.438C106.854 128.123 107.418 128.661 108.102 129.054C108.786 129.434 109.604 129.625 110.554 129.625C111.72 129.625 112.684 129.377 113.444 128.883C114.204 128.389 114.806 127.736 115.25 126.925C115.706 126.114 116.061 125.233 116.315 124.283V119.701C116.175 119.004 115.96 118.332 115.668 117.686C115.389 117.027 115.022 116.444 114.566 115.937C114.122 115.417 113.571 115.006 112.912 114.701C112.253 114.397 111.48 114.245 110.592 114.245C109.629 114.245 108.799 114.448 108.102 114.854C107.418 115.246 106.854 115.791 106.41 116.488C105.979 117.173 105.656 117.971 105.441 118.884C105.238 119.784 105.136 120.747 105.136 121.773Z" fill="#1D8FF3"/>
<path d="M127.835 116.051V132.229H124.318V111.66H127.645L127.835 116.051ZM126.998 121.165L125.535 121.108C125.547 119.701 125.756 118.402 126.162 117.211C126.568 116.007 127.138 114.961 127.873 114.074C128.608 113.187 129.482 112.503 130.496 112.021C131.523 111.527 132.657 111.28 133.899 111.28C134.913 111.28 135.826 111.419 136.637 111.698C137.448 111.964 138.138 112.395 138.709 112.99C139.292 113.586 139.735 114.359 140.04 115.31C140.344 116.248 140.496 117.395 140.496 118.751V132.229H136.96V118.713C136.96 117.635 136.801 116.774 136.485 116.127C136.168 115.468 135.705 114.993 135.097 114.701C134.488 114.397 133.741 114.245 132.854 114.245C131.979 114.245 131.181 114.429 130.458 114.796C129.749 115.164 129.134 115.671 128.614 116.317C128.107 116.964 127.708 117.705 127.417 118.542C127.138 119.365 126.998 120.24 126.998 121.165Z" fill="#1D8FF3"/>
<path d="M170.779 125.233C170.779 124.587 170.678 124.017 170.475 123.522C170.285 123.015 169.943 122.559 169.449 122.154C168.967 121.748 168.295 121.361 167.434 120.994C166.584 120.626 165.507 120.252 164.202 119.872C162.833 119.467 161.597 119.017 160.495 118.523C159.392 118.016 158.448 117.439 157.662 116.793C156.876 116.146 156.274 115.405 155.856 114.568C155.438 113.732 155.229 112.775 155.229 111.698C155.229 110.621 155.451 109.626 155.894 108.713C156.338 107.801 156.971 107.009 157.795 106.337C158.632 105.652 159.627 105.12 160.78 104.74C161.933 104.36 163.22 104.17 164.639 104.17C166.717 104.17 168.479 104.569 169.924 105.367C171.381 106.153 172.49 107.186 173.251 108.466C174.011 109.733 174.391 111.089 174.391 112.534H170.741C170.741 111.495 170.52 110.576 170.076 109.778C169.632 108.967 168.961 108.333 168.061 107.877C167.161 107.408 166.02 107.173 164.639 107.173C163.334 107.173 162.256 107.37 161.407 107.763C160.558 108.156 159.924 108.688 159.506 109.36C159.101 110.031 158.898 110.798 158.898 111.66C158.898 112.243 159.018 112.775 159.259 113.257C159.513 113.726 159.899 114.163 160.419 114.568C160.951 114.974 161.623 115.348 162.434 115.69C163.258 116.032 164.24 116.362 165.38 116.679C166.952 117.122 168.308 117.616 169.449 118.161C170.589 118.706 171.527 119.321 172.262 120.005C173.01 120.677 173.561 121.444 173.916 122.306C174.284 123.155 174.467 124.118 174.467 125.195C174.467 126.323 174.239 127.343 173.783 128.256C173.327 129.168 172.674 129.948 171.825 130.594C170.976 131.24 169.956 131.741 168.764 132.096C167.586 132.438 166.268 132.609 164.81 132.609C163.53 132.609 162.269 132.432 161.027 132.077C159.798 131.722 158.676 131.19 157.662 130.48C156.661 129.77 155.856 128.896 155.248 127.857C154.652 126.805 154.354 125.588 154.354 124.207H158.004C158.004 125.157 158.188 125.975 158.556 126.659C158.923 127.331 159.424 127.888 160.057 128.332C160.704 128.775 161.433 129.105 162.244 129.32C163.067 129.523 163.923 129.625 164.81 129.625C166.09 129.625 167.174 129.447 168.061 129.092C168.948 128.737 169.62 128.23 170.076 127.571C170.545 126.912 170.779 126.133 170.779 125.233Z" fill="#1D8FF3"/>
<path d="M184.391 130.1L190.113 111.66H193.877L185.626 135.404C185.436 135.911 185.183 136.456 184.866 137.039C184.562 137.634 184.169 138.198 183.687 138.731C183.206 139.263 182.623 139.694 181.938 140.023C181.267 140.365 180.462 140.537 179.524 140.537C179.245 140.537 178.89 140.499 178.46 140.422C178.029 140.346 177.724 140.283 177.547 140.232L177.528 137.381C177.629 137.393 177.788 137.406 178.003 137.419C178.231 137.444 178.39 137.457 178.479 137.457C179.277 137.457 179.955 137.349 180.513 137.134C181.07 136.931 181.539 136.582 181.919 136.088C182.312 135.607 182.648 134.941 182.927 134.092L184.391 130.1ZM180.189 111.66L185.531 127.628L186.444 131.336L183.915 132.628L176.349 111.66H180.189Z" fill="#1D8FF3"/>
<path d="M209.028 126.773C209.028 126.266 208.914 125.797 208.686 125.366C208.471 124.923 208.021 124.523 207.336 124.169C206.665 123.801 205.651 123.484 204.295 123.218C203.154 122.977 202.121 122.692 201.196 122.363C200.283 122.033 199.504 121.634 198.858 121.165C198.224 120.696 197.736 120.145 197.394 119.511C197.052 118.877 196.881 118.136 196.881 117.287C196.881 116.476 197.058 115.709 197.413 114.987C197.78 114.264 198.294 113.624 198.953 113.067C199.624 112.509 200.429 112.072 201.367 111.755C202.305 111.438 203.35 111.28 204.504 111.28C206.151 111.28 207.558 111.571 208.724 112.154C209.89 112.737 210.784 113.516 211.405 114.492C212.026 115.456 212.336 116.526 212.336 117.705H208.819C208.819 117.135 208.648 116.583 208.306 116.051C207.976 115.506 207.488 115.056 206.842 114.701C206.208 114.347 205.429 114.169 204.504 114.169C203.528 114.169 202.736 114.321 202.127 114.625C201.532 114.917 201.095 115.291 200.816 115.747C200.55 116.203 200.417 116.685 200.417 117.192C200.417 117.572 200.48 117.914 200.607 118.218C200.746 118.51 200.987 118.782 201.329 119.036C201.671 119.277 202.153 119.505 202.774 119.72C203.395 119.936 204.187 120.151 205.15 120.367C206.836 120.747 208.223 121.203 209.313 121.735C210.403 122.268 211.214 122.92 211.747 123.693C212.279 124.466 212.545 125.404 212.545 126.507C212.545 127.407 212.355 128.23 211.975 128.978C211.607 129.726 211.069 130.372 210.359 130.917C209.662 131.45 208.825 131.868 207.85 132.172C206.886 132.463 205.803 132.609 204.599 132.609C202.786 132.609 201.253 132.286 199.998 131.64C198.744 130.993 197.793 130.157 197.147 129.13C196.5 128.104 196.177 127.02 196.177 125.88H199.713C199.764 126.843 200.043 127.609 200.55 128.18C201.057 128.737 201.678 129.137 202.413 129.377C203.148 129.606 203.876 129.72 204.599 129.72C205.562 129.72 206.367 129.593 207.013 129.339C207.672 129.086 208.173 128.737 208.515 128.294C208.857 127.85 209.028 127.343 209.028 126.773Z" fill="#1D8FF3"/>
<path d="M225.776 111.66V114.359H214.655V111.66H225.776ZM218.419 106.66H221.936V127.134C221.936 127.831 222.044 128.357 222.259 128.712C222.475 129.067 222.754 129.301 223.096 129.415C223.438 129.53 223.806 129.587 224.199 129.587C224.49 129.587 224.794 129.561 225.111 129.511C225.441 129.447 225.688 129.396 225.852 129.358L225.871 132.229C225.593 132.318 225.225 132.4 224.769 132.476C224.325 132.565 223.787 132.609 223.153 132.609C222.291 132.609 221.499 132.438 220.777 132.096C220.054 131.754 219.478 131.183 219.047 130.385C218.628 129.574 218.419 128.484 218.419 127.115V106.66Z" fill="#1D8FF3"/>
<path d="M238.437 132.609C237.005 132.609 235.706 132.368 234.54 131.887C233.387 131.393 232.392 130.702 231.556 129.815C230.732 128.928 230.098 127.876 229.654 126.659C229.211 125.442 228.989 124.112 228.989 122.667V121.868C228.989 120.195 229.236 118.706 229.731 117.401C230.225 116.083 230.897 114.968 231.746 114.055C232.595 113.143 233.558 112.452 234.635 111.983C235.712 111.514 236.828 111.28 237.981 111.28C239.451 111.28 240.719 111.533 241.783 112.04C242.86 112.547 243.741 113.257 244.426 114.169C245.11 115.069 245.617 116.134 245.946 117.363C246.276 118.58 246.441 119.91 246.441 121.355V122.933H231.08V120.062H242.924V119.796C242.873 118.884 242.683 117.997 242.353 117.135C242.037 116.273 241.53 115.563 240.833 115.006C240.136 114.448 239.185 114.169 237.981 114.169C237.183 114.169 236.448 114.34 235.776 114.682C235.104 115.012 234.527 115.506 234.046 116.165C233.564 116.824 233.19 117.629 232.924 118.58C232.658 119.53 232.525 120.626 232.525 121.868V122.667C232.525 123.643 232.658 124.561 232.924 125.423C233.203 126.272 233.602 127.02 234.122 127.667C234.654 128.313 235.294 128.82 236.042 129.187C236.802 129.555 237.664 129.739 238.627 129.739C239.869 129.739 240.921 129.485 241.783 128.978C242.645 128.471 243.399 127.793 244.045 126.944L246.175 128.636C245.731 129.308 245.167 129.948 244.483 130.556C243.798 131.164 242.955 131.659 241.954 132.039C240.966 132.419 239.793 132.609 238.437 132.609Z" fill="#1D8FF3"/>
<path d="M254.045 115.747V132.229H250.509V111.66H253.855L254.045 115.747ZM253.322 121.165L251.688 121.108C251.7 119.701 251.884 118.402 252.239 117.211C252.594 116.007 253.12 114.961 253.817 114.074C254.514 113.187 255.382 112.503 256.421 112.021C257.46 111.527 258.664 111.28 260.033 111.28C260.996 111.28 261.883 111.419 262.695 111.698C263.506 111.964 264.209 112.389 264.805 112.971C265.4 113.554 265.863 114.302 266.192 115.215C266.522 116.127 266.687 117.23 266.687 118.523V132.229H263.17V118.694C263.17 117.616 262.986 116.755 262.618 116.108C262.264 115.462 261.757 114.993 261.098 114.701C260.439 114.397 259.666 114.245 258.778 114.245C257.739 114.245 256.871 114.429 256.174 114.796C255.477 115.164 254.919 115.671 254.501 116.317C254.083 116.964 253.779 117.705 253.589 118.542C253.411 119.365 253.322 120.24 253.322 121.165ZM266.649 119.226L264.291 119.948C264.304 118.82 264.488 117.737 264.843 116.698C265.21 115.658 265.736 114.733 266.421 113.922C267.118 113.111 267.973 112.471 268.987 112.002C270.001 111.52 271.161 111.28 272.466 111.28C273.568 111.28 274.544 111.425 275.393 111.717C276.255 112.008 276.978 112.458 277.561 113.067C278.156 113.662 278.606 114.429 278.91 115.367C279.215 116.305 279.367 117.42 279.367 118.713V132.229H275.831V118.675C275.831 117.521 275.647 116.628 275.279 115.994C274.925 115.348 274.418 114.898 273.759 114.644C273.112 114.378 272.339 114.245 271.439 114.245C270.666 114.245 269.982 114.378 269.386 114.644C268.791 114.911 268.29 115.278 267.884 115.747C267.479 116.203 267.168 116.729 266.953 117.325C266.75 117.921 266.649 118.554 266.649 119.226Z" fill="#1D8FF3"/>
</svg>
